<svg width="16" height="16" viewBox="0 0 16 16" fill="none" xmlns="http://www.w3.org/2000/svg">
<path fill-rule="evenodd" clip-rule="evenodd" d="M7.30099 2.0056C6.12265 2.11802 5.1524 2.56398 4.35996 3.35745C3.26416 4.45467 2.77912 6.03169 3.0949 7.47049C3.21562 8.02057 3.40411 8.51814 3.68291 9.0228C3.84788 9.32136 7.08178 14.2428 7.18665 14.3549C7.22256 14.3933 7.3016 14.454 7.36231 14.49C7.58268 14.6205 7.88198 14.5639 8.07766 14.3549C8.14073 14.2875 10.9725 10.0084 11.3666 9.38491C11.9841 8.40803 12.299 7.38111 12.2592 6.47423C12.2274 5.75103 12.0836 5.18074 11.7806 4.57615C11.5402 4.09645 11.2776 3.7312 10.9044 3.35745C10.2063 2.65857 9.33084 2.21067 8.3555 2.05352C8.12358 2.01616 7.49147 1.98742 7.30099 2.0056ZM8.26996 2.59496C9.56987 2.78561 10.7811 3.69313 11.3276 4.88594C11.6018 5.48426 11.7118 5.98109 11.712 6.62161C11.7121 6.92459 11.7007 7.0446 11.6479 7.29708C11.5251 7.88487 11.323 8.38992 10.9817 8.96191C10.6769 9.47284 7.66598 14.015 7.63215 14.015C7.59833 14.015 4.58743 9.47284 4.28256 8.96191C3.96194 8.42456 3.77365 7.97206 3.64596 7.43218C3.44697 6.59066 3.54367 5.74374 3.93668 4.88594C4.49566 3.66594 5.75201 2.74543 7.08021 2.58265C7.51725 2.52908 7.84395 2.53247 8.26996 2.59496ZM7.21552 4.2153C6.38667 4.36543 5.70059 4.91716 5.36857 5.70051C5.05926 6.43029 5.13879 7.30531 5.57487 7.97047C5.92468 8.50402 6.41756 8.85465 7.06794 9.0327C7.29473 9.09477 7.96958 9.09477 8.19636 9.0327C8.84675 8.85465 9.33962 8.50402 9.68944 7.97047C10.0325 7.44716 10.1622 6.77495 10.0373 6.1672C9.8574 5.29233 9.23991 4.58984 8.39928 4.30375C8.0442 4.18291 7.58415 4.14854 7.21552 4.2153ZM7.86956 4.74438C8.28195 4.8011 8.63552 4.96918 8.93256 5.24976C9.54782 5.83091 9.71257 6.70669 9.34853 7.46094C9.10901 7.95723 8.66785 8.3267 8.12991 8.48159C7.8585 8.55972 7.40581 8.55972 7.1344 8.48159C6.18493 8.20823 5.58662 7.27493 5.75201 6.32514C5.89478 5.50529 6.55049 4.86295 7.36327 4.74672C7.58663 4.71479 7.6521 4.71449 7.86956 4.74438Z" fill="#5C6881" stroke="#5C6881" stroke-width="0.3"/>
</svg>
