<svg width="12" height="11" viewBox="0 0 12 11" fill="none" xmlns="http://www.w3.org/2000/svg">
<path fill-rule="evenodd" clip-rule="evenodd" d="M4.38534 0.0227696C4.08598 0.0815509 3.78319 0.316441 3.65576 0.588762C3.56944 0.773215 3.53906 0.931254 3.53906 1.19591V1.40366H1.90748H0.275906L0.182414 1.45621C0.127547 1.48705 0.0705469 1.54475 0.0444609 1.59589C0.00133594 1.68043 0 1.80067 0 5.61828C0 8.19697 0.00825 9.59699 0.0239297 9.67965C0.103758 10.1006 0.443695 10.4405 0.864633 10.5204C1.0391 10.5534 10.9609 10.5534 11.1354 10.5204C11.3345 10.4826 11.5415 10.373 11.6851 10.2294C11.8287 10.0858 11.9383 9.87875 11.9761 9.67965C11.9918 9.59701 12 8.19885 12 5.62417V1.69485L11.9473 1.59027C11.848 1.39339 11.9507 1.40373 10.0957 1.40371L8.46094 1.40366V1.19591C8.46094 1.08168 8.45018 0.931418 8.43701 0.862043C8.35718 0.441106 8.01724 0.101168 7.5963 0.0213399C7.44169 -0.00798041 4.53537 -0.00669133 4.38534 0.0227696ZM7.57092 0.747715C7.71084 0.819106 7.75781 0.930715 7.75781 1.19179V1.40366H6H4.24219V1.19179C4.24219 0.934887 4.28937 0.819996 4.42409 0.748863C4.5086 0.704262 4.56452 0.702574 5.99508 0.701566C7.43655 0.700559 7.48104 0.701871 7.57092 0.747715ZM11.1505 2.13608C11.1446 2.15221 10.8946 2.90141 10.595 3.80101C10.212 4.95069 10.033 5.45706 9.99234 5.50541C9.96052 5.54321 9.89562 5.58496 9.84811 5.59815C9.79542 5.6128 9.37087 5.6222 8.75977 5.62227L7.75781 5.62241V5.41053C7.75781 5.14946 7.71084 5.03785 7.57092 4.96646C7.48111 4.92067 7.43548 4.91928 6 4.91928C4.56452 4.91928 4.51889 4.92067 4.42908 4.96646C4.28916 5.03785 4.24219 5.14946 4.24219 5.41053V5.62241L3.24023 5.62227C2.62913 5.6222 2.20458 5.6128 2.15189 5.59815C2.10438 5.58496 2.03948 5.54321 2.00766 5.50541C1.96699 5.45706 1.78795 4.95069 1.40503 3.80101C1.10543 2.90141 0.855445 2.15221 0.849516 2.13608C0.840914 2.11269 1.88086 2.10679 6 2.10679C10.1191 2.10679 11.1591 2.11269 11.1505 2.13608ZM1.33521 5.76198C1.41185 5.91165 1.61953 6.11971 1.76658 6.1941C2.01795 6.32127 2.058 6.32495 3.19336 6.32525L4.24219 6.32553V6.53741C4.24219 6.79848 4.28916 6.91009 4.42908 6.98148C4.51889 7.02728 4.56452 7.02866 6 7.02866C7.43548 7.02866 7.48111 7.02728 7.57092 6.98148C7.71084 6.91009 7.75781 6.79848 7.75781 6.53741V6.32553L8.80664 6.32525C9.942 6.32495 9.98206 6.32127 10.2334 6.1941C10.3805 6.11971 10.5881 5.91165 10.6648 5.76198C10.6942 5.70456 10.8476 5.2726 11.0057 4.8021L11.2932 3.94663L11.295 6.75421C11.2969 9.52363 11.2962 9.56303 11.2497 9.65427C11.2193 9.71382 11.1695 9.7636 11.11 9.79398C11.0181 9.84083 10.9824 9.84116 6 9.84116C1.01759 9.84116 0.981867 9.84083 0.890016 9.79398C0.830461 9.7636 0.78068 9.71382 0.750305 9.65427C0.703758 9.56303 0.703148 9.52363 0.704953 6.75421L0.706781 3.94663L0.994266 4.8021C1.15238 5.2726 1.3058 5.70456 1.33521 5.76198ZM7.05469 5.97397V6.32553H6H4.94531V5.97397V5.62241H6H7.05469V5.97397Z" fill="#5C6881"/>
</svg>
