<svg width="27" height="17" viewBox="0 0 27 17" fill="none" xmlns="http://www.w3.org/2000/svg">
<g clip-path="url(#clip0_3_167)">
<path fill-rule="evenodd" clip-rule="evenodd" d="M24.1186 13.6169L24.1278 13.6076V13.9318C24.0074 14.043 23.9426 14.08 23.8314 14.08C23.7018 14.08 23.6092 14.0337 23.6092 13.8855C23.6092 13.6632 23.85 13.6076 23.9796 13.6076C23.9982 13.6076 24.0723 13.6169 24.1186 13.6169ZM10.5403 13.6169C10.5495 13.6262 10.5588 13.6262 10.5681 13.6076V13.9225C10.4662 14.043 10.355 14.08 10.2624 14.08C10.142 14.08 10.0494 14.043 10.0494 13.8948C10.0494 13.6725 10.2717 13.6076 10.4106 13.6076C10.4291 13.6076 10.494 13.6076 10.5403 13.6169H10.5403ZM9.35473 13.7003C9.35473 14.0059 9.12318 14.043 8.91941 14.043C8.90088 14.043 8.80827 14.043 8.76195 14.0337V13.3761C8.81752 13.3853 8.91015 13.3761 8.93793 13.3761C9.16949 13.3761 9.35473 13.4224 9.35473 13.7003L9.35473 13.7003ZM7.19665 13.2649V13.9689C7.13181 14.043 7.02066 14.0707 6.96509 14.0707C6.65017 14.0707 6.56681 13.8484 6.56681 13.6169C6.56681 13.4039 6.67796 13.1445 6.95583 13.1445C7.02993 13.1445 7.13181 13.1631 7.19665 13.2649ZM5.69618 13.1538C5.77027 13.1631 5.91847 13.3205 5.91847 13.4039V13.4502H5.23307V13.4224C5.28864 13.2279 5.41832 13.1445 5.58504 13.1445C5.60356 13.1445 5.65913 13.1445 5.69618 13.1538V13.1538ZM16.1994 13.5984C16.1994 13.7836 16.1439 14.0707 15.8567 14.0707C15.5603 14.0707 15.5326 13.7744 15.5326 13.6076C15.5326 13.4409 15.5789 13.1353 15.866 13.1353C16.1531 13.1353 16.1994 13.4224 16.1994 13.5984ZM21.8679 12.9685V14.2467H21.6456V13.1538H21.4696V12.9685H21.8679H21.8679ZM3.73264 12.9685V14.2467H3.5011V13.1538H3.32511V12.9685H3.73264H3.73264ZM19.043 13.691H18.5521L18.8114 12.9593L19.043 13.691ZM24.1649 13.0056C24.2853 13.0519 24.3687 13.2835 24.3687 13.3853V13.9874C24.378 14.043 24.3965 14.1078 24.4706 14.1541V14.2652H24.3594C24.2853 14.2467 24.1742 14.1819 24.1557 14.1078C24.0908 14.2189 23.85 14.2745 23.7481 14.2745C23.5166 14.2745 23.3776 14.08 23.3776 13.8855C23.3776 13.5428 23.7481 13.4224 23.9704 13.4224C23.9889 13.4224 24.0723 13.4409 24.1279 13.4502C24.1371 13.4409 24.1371 13.4224 24.1371 13.4039C24.1371 13.2001 23.9797 13.1445 23.85 13.1445C23.7574 13.1445 23.6185 13.1723 23.5444 13.2557C23.5073 13.2001 23.4425 13.0982 23.4425 13.0704C23.4425 13.0519 23.5258 13.0056 23.5629 12.9963C23.5999 12.9778 23.6555 12.9593 23.7203 12.95C23.7481 12.9408 23.8222 12.9408 23.8407 12.9408C23.9426 12.9408 24.0723 12.9685 24.1649 13.0056L24.1649 13.0056ZM23.1924 13.0704C23.1646 13.1167 23.1276 13.1723 23.0905 13.2279C22.9608 13.1538 22.896 13.1353 22.7849 13.1353C22.4607 13.1353 22.3866 13.4131 22.3866 13.6169C22.3866 13.8855 22.5162 14.08 22.7941 14.08C22.8867 14.08 23.0257 14.0244 23.109 13.9596L23.2017 14.1448C23.1276 14.2097 22.8682 14.2745 22.7478 14.2745C22.507 14.2745 22.2384 14.1263 22.155 13.7836C22.155 13.7651 22.1458 13.728 22.1458 13.7095V13.5335C22.1828 13.0982 22.4977 12.9408 22.7941 12.9408C22.9145 12.9408 23.0812 12.9963 23.1924 13.0704V13.0704ZM21.3677 12.9593L21.2844 13.1816C21.2381 13.1631 21.1455 13.1353 21.1269 13.1353C20.9787 13.1353 20.8305 13.302 20.8305 13.4317V14.2467H20.599V12.9685H20.8305C20.8305 13.0241 20.8305 13.089 20.8398 13.1445C20.9139 12.9871 21.0806 12.9408 21.1918 12.9408C21.2196 12.9408 21.3122 12.95 21.3677 12.9593H21.3677ZM17.4684 12.9778C17.4406 13.0519 17.4128 13.1167 17.385 13.1816C17.3387 13.1631 17.2461 13.1353 17.2276 13.1353C17.0794 13.1353 16.9312 13.302 16.9312 13.4317V14.2467H16.6996V12.9685H16.9312C16.9312 13.0241 16.9312 13.089 16.9404 13.1445C17.0145 12.9871 17.1813 12.9408 17.2924 12.9408C17.348 12.9408 17.4684 12.9778 17.4684 12.9778ZM16.4403 13.5984C16.4403 13.9225 16.3014 14.2745 15.866 14.2745C15.44 14.2745 15.2825 13.9225 15.2825 13.5984C15.2825 13.2557 15.477 12.9408 15.866 12.9408C16.3106 12.9408 16.4403 13.2835 16.4403 13.5984ZM11.8648 12.95C12.0223 12.95 12.1705 13.1816 12.1705 13.3205V14.2467H11.9482V13.4039C11.9389 13.2094 11.8278 13.1353 11.6888 13.1353C11.661 13.1353 11.6425 13.126 11.6332 13.1353C11.5777 13.1445 11.3832 13.2279 11.3832 13.302V14.2467H11.1609V12.9685H11.3183C11.3369 13.0149 11.3646 13.0704 11.3832 13.1167C11.4758 12.9871 11.624 12.9408 11.7537 12.9408C11.7722 12.9408 11.8278 12.95 11.8648 12.95H11.8648ZM10.7533 13.1908C10.7626 13.2371 10.7997 13.3113 10.7997 13.339V13.9411C10.8182 13.9966 10.8089 14.0985 10.9015 14.1541V14.2652H10.7997C10.7348 14.256 10.6144 14.2004 10.5959 14.1078C10.5403 14.2189 10.2717 14.2745 10.1791 14.2745C9.95679 14.2745 9.80861 14.08 9.80861 13.8855C9.80861 13.5428 10.1791 13.4224 10.4014 13.4224C10.4199 13.4224 10.5125 13.4409 10.5681 13.4502C10.5774 13.4409 10.5774 13.4409 10.5774 13.4131C10.5774 13.2279 10.4477 13.1445 10.2902 13.1445C10.1791 13.1445 10.0865 13.1631 9.98458 13.2557C9.93828 13.2279 9.89197 13.1167 9.87344 13.0704C9.96606 12.9963 10.1513 12.9408 10.281 12.9408C10.4106 12.9408 10.6885 12.9778 10.7533 13.1908L10.7533 13.1908ZM6.15006 13.4872C6.15006 13.5058 6.15006 13.5798 6.1408 13.6262H5.21458V13.7003C5.23311 13.9596 5.42761 14.08 5.62211 14.08C5.72401 14.08 5.81662 14.0522 5.93703 13.9689C5.97408 14.0152 6.00187 14.0707 6.03891 14.1263C5.97408 14.2097 5.68695 14.2745 5.57581 14.2745C5.16828 14.2745 4.97377 13.9411 4.97377 13.6169C4.97377 13.2742 5.18679 12.9408 5.57581 12.9408C5.91851 12.9408 6.15006 13.1353 6.15006 13.4872V13.4872ZM2.85274 12.9778C2.88053 12.9871 2.95462 13.0612 2.98241 13.0982C2.99168 13.0982 3.06577 13.2835 3.06577 13.3205V14.2467H2.84348V13.4039C2.80644 13.1908 2.73233 13.1353 2.58414 13.1353C2.48226 13.1353 2.38037 13.1723 2.27849 13.302V14.2467H2.0562V12.9685H2.21365C2.23217 13.0149 2.25996 13.0704 2.27849 13.1167C2.37111 12.9871 2.51931 12.9408 2.64897 12.9408C2.6675 12.9408 2.7879 12.95 2.85274 12.9778L2.85274 12.9778ZM9.26214 12.9222C9.26214 13.1631 9.05837 13.1908 8.90091 13.1908H8.76198V12.6907H8.91018C9.04911 12.6907 9.26214 12.6907 9.26214 12.9222ZM4.39952 12.9685H4.75148V13.1445H4.39952V13.867C4.44583 14.0337 4.51066 14.08 4.62181 14.08C4.6496 14.08 4.75148 14.0522 4.80706 14.0337C4.81631 14.0985 4.83485 14.1726 4.8441 14.2375C4.74222 14.256 4.55698 14.2745 4.52919 14.2745C4.33469 14.2745 4.16797 14.0893 4.16797 13.9133V13.1445H4.01977V12.9685H4.16797V12.7C4.24206 12.6722 4.32543 12.6351 4.39951 12.6166V12.9685L4.39952 12.9685ZM0.722449 12.4962V13.6817C0.759494 13.9596 0.907687 14.0615 1.09293 14.0615C1.2504 14.0615 1.39858 13.9874 1.47268 13.7744V12.4962H1.7135V13.8021C1.65792 14.1911 1.33375 14.2745 1.09293 14.2745C0.898426 14.2745 0.639093 14.2189 0.527946 13.9689C0.509413 13.9133 0.490894 13.8207 0.490894 13.8021V12.4962H0.722449H0.722449ZM21.9049 12.6166C21.9049 12.7092 21.8493 12.7648 21.766 12.7648C21.6734 12.7648 21.6271 12.6814 21.6271 12.6258C21.6271 12.5332 21.6734 12.4869 21.766 12.4869C21.8493 12.4869 21.9049 12.5332 21.9049 12.6166ZM3.76971 12.6166C3.76971 12.7092 3.68635 12.7648 3.62151 12.7648C3.52889 12.7648 3.48258 12.6814 3.48258 12.6258C3.48258 12.5332 3.55668 12.4869 3.62151 12.4869C3.70487 12.4869 3.76971 12.5332 3.76971 12.6166ZM9.51223 12.9037C9.51223 13.0334 9.44741 13.1631 9.26216 13.2557L9.2529 13.2742C9.5215 13.3298 9.62338 13.5335 9.62338 13.7373C9.62338 13.7558 9.60486 13.8392 9.59559 13.8855C9.56781 14.0893 9.24363 14.2467 9.08618 14.2467H8.51192V12.4777H8.94725C9.19733 12.4777 9.51223 12.5518 9.51223 12.9037L9.51223 12.9037ZM18.8485 12.4684L19.5153 14.2467H19.2467C19.2097 14.1263 19.1634 13.9966 19.1171 13.8762H18.4872C18.4317 13.9966 18.3854 14.1263 18.3483 14.2467H18.0797C18.3113 13.6539 18.5521 13.0612 18.7836 12.4684H18.8485H18.8485ZM20.4323 12.4777C20.423 12.4962 20.3675 12.6444 20.3582 12.6444C20.3304 12.6444 20.2656 12.6258 20.2378 12.6258C20.0711 12.6258 19.997 12.774 19.997 12.9037C19.997 12.9222 20.0062 12.9408 20.0062 12.9685H20.2656V13.1538H20.0062V14.2467H19.7839V13.1538H19.5987V12.9685H19.7839C19.7747 12.6629 19.9321 12.4406 20.2193 12.4406C20.2378 12.4406 20.3582 12.4591 20.4323 12.4777ZM15.2177 12.4777L15.1621 12.6444C15.1251 12.6351 15.0602 12.6258 15.0325 12.6258C14.9306 12.6258 14.7916 12.7277 14.7916 12.8389V12.9685H15.0602V13.1538H14.7916V14.2467H14.5694V13.1538H14.3841V12.9685H14.5694C14.5694 12.6536 14.7268 12.4406 15.0047 12.4406C15.0325 12.4406 15.1529 12.4591 15.2177 12.4777L15.2177 12.4777ZM12.7262 12.4406V13.5428L13.2078 12.9685H13.4764L13.0781 13.4502L13.569 14.2467H13.319L12.9207 13.6076C12.8651 13.6725 12.791 13.7466 12.7262 13.8114V14.2467H12.4946V12.4406H12.7262V12.4406ZM7.42824 12.4406V14.2467H7.20594C7.20594 14.2189 7.20594 14.1911 7.19669 14.1634C7.08554 14.2467 6.9744 14.2652 6.86325 14.2652C6.45572 14.2652 6.31678 13.9225 6.31678 13.6354C6.31678 13.3483 6.51128 12.9408 6.90956 12.9408C6.9744 12.9408 7.13185 12.9685 7.20594 13.0241V12.4406H7.42824V12.4406ZM8.58601 8.06887C9.13248 8.18927 9.37328 8.49493 9.37328 8.92099C9.37328 8.93951 9.36403 9.11549 9.33625 9.20811C9.30846 9.30073 9.25751 9.38255 9.16953 9.49524C8.89591 9.84565 8.37298 10.1251 8.04881 10.1251H7.12259C7.27079 9.44893 7.40045 8.75427 7.54865 8.08741C7.54865 8.06888 7.55791 8.05962 7.57644 8.05036L8.28036 8.03184C8.29888 8.03184 8.48413 8.05036 8.58601 8.06888L8.58601 8.06887ZM14.7268 8.84689H13.0504L14.273 6.97594L14.7268 8.84689ZM9.53075 6.41096C9.53075 6.42948 9.4937 6.60547 9.48443 6.69809C9.46591 6.89259 9.28993 7.17972 9.0306 7.33717C8.93797 7.39275 8.55823 7.61504 8.50266 7.61504H7.67831C7.7061 7.46684 7.73389 7.30939 7.76168 7.16119C7.78021 7.06857 7.80799 6.96668 7.81725 6.87406C7.83578 6.78145 7.86356 6.67955 7.87282 6.58694C7.89136 6.49432 7.91914 6.39244 7.92839 6.29982C7.94693 6.20719 7.95464 6.15625 7.97471 6.01268C7.99478 5.84751 7.98242 5.84134 8.07659 5.84597L8.77125 5.82745C9.06763 5.82745 9.53075 5.9849 9.53075 6.41096V6.41096ZM15.0325 5.09573L16.4218 10.8105H15.1714L14.9491 9.68974H12.5317L11.7907 10.8105H10.7533L14.6249 5.09573H15.0324H15.0325ZM9.50296 5.09573C10.3365 5.18836 10.7256 5.57737 10.7256 6.22572C10.7256 6.92038 10.2439 7.43906 9.40107 7.71692C9.41034 7.72619 9.42886 7.72619 9.43812 7.72619C10.0587 7.8188 10.5033 8.18002 10.5033 8.74501C10.5033 9.64344 9.94754 10.477 8.74346 10.7456C8.68789 10.7549 8.3174 10.829 8.18773 10.829H5.82588L7.0207 5.09573H9.50295L9.50296 5.09573ZM1.97283 5.09573C1.88021 5.58663 1.77833 6.04974 1.6857 6.51284C1.61161 6.85554 1.53751 7.21677 1.47268 7.56872C1.38005 8.08741 1.23185 8.58756 1.23185 9.10623C1.23185 9.67123 1.4171 10.1806 2.14881 10.1806C2.85273 10.1806 3.5474 9.71753 3.76968 8.77279C4.05682 7.55021 4.29762 6.31833 4.55697 5.09573H5.61286V5.12351C5.31646 6.46653 5.03859 7.80954 4.73294 9.14328C4.57087 9.56471 4.49908 9.63185 4.37172 9.80089C3.81599 10.5696 3.07503 10.8197 2.43594 10.8938C2.36185 10.9031 2.23217 10.9216 2.20439 10.9216H1.6394C1.52825 10.9124 1.40785 10.8938 1.30597 10.8753C1.20408 10.8568 1.09293 10.829 0.991048 10.8012C0.277865 10.6252 0 9.93983 0 9.43041V9.20811C0.00925937 9.14328 0.00925937 9.06918 0.0185257 8.99509C0.287124 7.6984 0.55573 6.39244 0.824331 5.09574H1.97284L1.97283 5.09573ZM21.1732 10.7734C21.025 10.7919 20.7379 10.829 20.7101 10.829H18.4038L19.9599 3.52117C20.7749 5.11426 21.59 6.72587 22.3958 8.33746C22.5347 8.68943 22.6644 9.06917 22.6644 9.43039C22.6644 10.2362 22.0994 10.6252 21.1732 10.7734L21.1732 10.7734ZM24.489 9.34704C24.0167 8.43009 23.5443 7.50389 23.0812 6.58694C22.8219 6.07752 22.5625 5.54958 22.3032 5.04943C22.2198 4.87344 22.1272 4.71599 22.0531 4.54927C21.9697 4.36403 21.7845 3.79904 21.7845 3.53044V3.33593C21.7938 3.24331 21.803 3.13216 21.8308 3.0488C22.1087 2.1689 23.1368 2.08554 23.7481 2.03922L26.0543 2.03922L24.489 9.34704Z" fill="#CC0000"/>
</g>
<defs>
<clipPath id="clip0_3_167">
<rect width="26.1529" height="12.2353" fill="white" transform="translate(0 2.03922)"/>
</clipPath>
</defs>
</svg>
