<svg width="31" height="19" viewBox="0 0 31 19" fill="none" xmlns="http://www.w3.org/2000/svg">
<g clip-path="url(#clip0_3_96)">
<path fill-rule="evenodd" clip-rule="evenodd" d="M27.8291 15.8591L27.8398 15.8483V16.2259C27.7009 16.3553 27.6261 16.3985 27.4978 16.3985C27.3482 16.3985 27.2413 16.3445 27.2413 16.1719C27.2413 15.913 27.5192 15.8483 27.6688 15.8483C27.6902 15.8483 27.7757 15.8591 27.8291 15.8591ZM12.1619 15.8591C12.1726 15.8699 12.1832 15.8699 12.1939 15.8483V16.2151C12.0764 16.3553 11.9481 16.3985 11.8413 16.3985C11.7023 16.3985 11.5955 16.3553 11.5955 16.1827C11.5955 15.9238 11.8519 15.8483 12.0122 15.8483C12.0336 15.8483 12.1084 15.8483 12.1619 15.8591H12.1619ZM10.7939 15.9562C10.7939 16.3122 10.5267 16.3553 10.2916 16.3553C10.2702 16.3553 10.1634 16.3553 10.1099 16.3445V15.5786C10.1741 15.5894 10.2809 15.5786 10.313 15.5786C10.5802 15.5786 10.7939 15.6326 10.7939 15.9562L10.7939 15.9562ZM8.30382 15.4492V16.269C8.22901 16.3553 8.10077 16.3877 8.03664 16.3877C7.67328 16.3877 7.57709 16.1288 7.57709 15.8591C7.57709 15.611 7.70534 15.3089 8.02595 15.3089C8.11146 15.3089 8.22901 15.3305 8.30382 15.4492ZM6.57251 15.3197C6.65801 15.3305 6.82901 15.5139 6.82901 15.611V15.6649H6.03816V15.6326C6.10227 15.406 6.2519 15.3089 6.44427 15.3089C6.46564 15.3089 6.52976 15.3089 6.57251 15.3197V15.3197ZM18.6917 15.8375C18.6917 16.0533 18.6275 16.3877 18.2962 16.3877C17.9542 16.3877 17.9222 16.0425 17.9222 15.8483C17.9222 15.6541 17.9756 15.2982 18.3069 15.2982C18.6382 15.2982 18.6917 15.6326 18.6917 15.8375ZM25.2321 15.104V16.5926H24.9757V15.3197H24.7726V15.104H25.2321H25.2321ZM4.3069 15.104V16.5926H4.03973V15.3197H3.83667V15.104H4.30689H4.3069ZM21.9726 15.9454H21.4062L21.7055 15.0932L21.9726 15.9454ZM27.8826 15.1471C28.0215 15.2011 28.1177 15.4708 28.1177 15.5894V16.2906C28.1284 16.3553 28.1498 16.4308 28.2353 16.4848V16.6142H28.107C28.0215 16.5926 27.8933 16.5171 27.8719 16.4308C27.7971 16.5603 27.5192 16.625 27.4017 16.625C27.1345 16.625 26.9742 16.3985 26.9742 16.1719C26.9742 15.7728 27.4017 15.6326 27.6582 15.6326C27.6795 15.6326 27.7757 15.6541 27.8399 15.6649C27.8505 15.6541 27.8505 15.6326 27.8505 15.611C27.8505 15.3737 27.6688 15.3089 27.5192 15.3089C27.4124 15.3089 27.2521 15.3413 27.1666 15.4384C27.1238 15.3737 27.049 15.255 27.049 15.2226C27.049 15.2011 27.1452 15.1471 27.1879 15.1364C27.2307 15.1148 27.2948 15.0932 27.3696 15.0824C27.4017 15.0716 27.4872 15.0716 27.5085 15.0716C27.6261 15.0716 27.7757 15.104 27.8826 15.1471L27.8826 15.1471ZM26.7604 15.2226C26.7284 15.2766 26.6856 15.3413 26.6429 15.406C26.4933 15.3197 26.4185 15.2982 26.2902 15.2982C25.9162 15.2982 25.8307 15.6218 25.8307 15.8591C25.8307 16.1719 25.9803 16.3985 26.3009 16.3985C26.4078 16.3985 26.5681 16.3337 26.6643 16.2582L26.7711 16.474C26.6856 16.5495 26.3864 16.625 26.2475 16.625C25.9696 16.625 25.6597 16.4524 25.5635 16.0533C25.5635 16.0317 25.5528 15.9885 25.5528 15.967V15.762C25.5956 15.255 25.9589 15.0716 26.3009 15.0716C26.4398 15.0716 26.6322 15.1364 26.7604 15.2226V15.2226ZM24.6551 15.0932L24.5589 15.3521C24.5055 15.3305 24.3986 15.2982 24.3772 15.2982C24.2062 15.2982 24.0352 15.4923 24.0352 15.6434V16.5926H23.7681V15.104H24.0352C24.0352 15.1687 24.0352 15.2442 24.0459 15.3089C24.1314 15.1256 24.3238 15.0716 24.452 15.0716C24.4841 15.0716 24.591 15.0824 24.6551 15.0932H24.6551ZM20.1558 15.1148C20.1238 15.2011 20.0917 15.2766 20.0596 15.3521C20.0062 15.3305 19.8993 15.2982 19.878 15.2982C19.707 15.2982 19.536 15.4923 19.536 15.6434V16.5926H19.2688V15.104H19.536C19.536 15.1687 19.536 15.2442 19.5467 15.3089C19.6322 15.1256 19.8245 15.0716 19.9528 15.0716C20.0169 15.0716 20.1558 15.1148 20.1558 15.1148H20.1558ZM18.9696 15.8375C18.9696 16.2151 18.8093 16.625 18.307 16.625C17.8153 16.625 17.6337 16.2151 17.6337 15.8375C17.6337 15.4384 17.8581 15.0716 18.307 15.0716C18.8199 15.0716 18.9696 15.4708 18.9696 15.8375ZM13.6902 15.0824C13.8718 15.0824 14.0428 15.3521 14.0428 15.5139V16.5926H13.7863V15.611C13.7757 15.3845 13.6474 15.2982 13.4871 15.2982C13.455 15.2982 13.4337 15.2874 13.423 15.2982C13.3589 15.309 13.1344 15.406 13.1344 15.4923V16.5926H12.8779V15.104H13.0596C13.081 15.1579 13.1131 15.2226 13.1344 15.2766C13.2413 15.1256 13.4123 15.0716 13.5619 15.0716C13.5833 15.0716 13.6474 15.0824 13.6902 15.0824H13.6902ZM12.4077 15.3629C12.4184 15.4168 12.4611 15.5031 12.4611 15.5355V16.2367C12.4825 16.3014 12.4718 16.42 12.5787 16.4848V16.6142H12.4611C12.3863 16.6034 12.2474 16.5387 12.226 16.4308C12.1619 16.5603 11.852 16.625 11.7451 16.625C11.4886 16.625 11.3176 16.3985 11.3176 16.1719C11.3176 15.7728 11.7451 15.6326 12.0016 15.6326C12.023 15.6326 12.1298 15.6541 12.194 15.6649C12.2046 15.6541 12.2046 15.6541 12.2046 15.6218C12.2046 15.406 12.055 15.3089 11.8733 15.3089C11.7451 15.3089 11.6382 15.3305 11.5207 15.4384C11.4672 15.406 11.4138 15.2766 11.3924 15.2226C11.4993 15.1364 11.713 15.0716 11.8627 15.0716C12.0123 15.0716 12.3329 15.1148 12.4077 15.3629L12.4077 15.3629ZM7.09622 15.7081C7.09622 15.7297 7.09622 15.8159 7.08554 15.8699H6.01682V15.9562C6.0382 16.2582 6.26263 16.3985 6.48705 16.3985C6.60462 16.3985 6.71148 16.3661 6.85042 16.269C6.89317 16.3229 6.92523 16.3877 6.96797 16.4524C6.89317 16.5495 6.56186 16.625 6.43362 16.625C5.9634 16.625 5.73897 16.2367 5.73897 15.8591C5.73897 15.46 5.98476 15.0716 6.43362 15.0716C6.82905 15.0716 7.09622 15.2982 7.09622 15.7081V15.7081ZM3.29163 15.1148C3.32369 15.1256 3.40918 15.2119 3.44124 15.255C3.45193 15.255 3.53743 15.4708 3.53743 15.5139V16.5926H3.28093V15.611C3.2382 15.3629 3.15269 15.2982 2.9817 15.2982C2.86414 15.2982 2.74658 15.3413 2.62903 15.4923V16.5926H2.37254V15.104H2.55422C2.57558 15.1579 2.60764 15.2226 2.62903 15.2766C2.73589 15.1256 2.90689 15.0716 3.05651 15.0716C3.07789 15.0716 3.21681 15.0824 3.29163 15.1148L3.29163 15.1148ZM10.6871 15.0501C10.6871 15.3305 10.452 15.3629 10.2703 15.3629H10.11V14.7804H10.281C10.4413 14.7804 10.6871 14.7804 10.6871 15.0501ZM5.07636 15.104H5.48248V15.309H5.07636V16.1504C5.12981 16.3445 5.20461 16.3985 5.33286 16.3985C5.36492 16.3985 5.48248 16.3661 5.54661 16.3445C5.55728 16.42 5.57867 16.5063 5.58934 16.5818C5.47179 16.6034 5.25806 16.625 5.22599 16.625C5.00157 16.625 4.80919 16.4093 4.80919 16.2043V15.309H4.6382V15.104H4.80919V14.7912C4.89469 14.7588 4.99088 14.7156 5.07636 14.6941V15.104L5.07636 15.104ZM0.833595 14.5538V15.9346C0.876339 16.2582 1.04733 16.3769 1.26107 16.3769C1.44276 16.3769 1.61375 16.2906 1.69925 16.0425V14.5538H1.97711V16.0748C1.91298 16.5279 1.53894 16.625 1.26107 16.625C1.03665 16.625 0.737415 16.5603 0.609168 16.269C0.587784 16.2043 0.566416 16.0964 0.566416 16.0748V14.5538H0.833595H0.833595ZM25.2749 14.6941C25.2749 14.8019 25.2108 14.8667 25.1146 14.8667C25.0077 14.8667 24.9543 14.7696 24.9543 14.7049C24.9543 14.597 25.0077 14.543 25.1146 14.543C25.2108 14.543 25.2749 14.597 25.2749 14.6941ZM4.34966 14.6941C4.34966 14.8019 4.25348 14.8667 4.17866 14.8667C4.0718 14.8667 4.01836 14.7696 4.01836 14.7049C4.01836 14.597 4.10386 14.543 4.17866 14.543C4.27485 14.543 4.34966 14.597 4.34966 14.6941ZM10.9756 15.0285C10.9756 15.1795 10.9009 15.3305 10.6871 15.4384L10.6764 15.46C10.9863 15.5247 11.1039 15.762 11.1039 15.9993C11.1039 16.0209 11.0825 16.118 11.0718 16.1719C11.0398 16.4093 10.6657 16.5926 10.4841 16.5926H9.82145V14.5323H10.3237C10.6123 14.5323 10.9757 14.6186 10.9757 15.0285L10.9756 15.0285ZM21.7482 14.5215L22.5177 16.5926H22.2078C22.165 16.4524 22.1116 16.3014 22.0582 16.1611H21.3314C21.2673 16.3014 21.2139 16.4524 21.1711 16.5926H20.8612C21.1284 15.9022 21.4062 15.2119 21.6734 14.5215H21.7482H21.7482ZM23.5757 14.5323C23.565 14.5538 23.5009 14.7264 23.4902 14.7264C23.4582 14.7264 23.3834 14.7049 23.3513 14.7049C23.1589 14.7049 23.0734 14.8775 23.0734 15.0285C23.0734 15.0501 23.0841 15.0716 23.0841 15.104H23.3834V15.3197H23.0841V16.5926H22.8276V15.3197H22.6139V15.104H22.8276C22.8169 14.748 22.9986 14.4891 23.3299 14.4891C23.3513 14.4891 23.4902 14.5107 23.5757 14.5323ZM17.5589 14.5323L17.4948 14.7264C17.452 14.7156 17.3772 14.7049 17.3451 14.7049C17.2276 14.7049 17.0673 14.8235 17.0673 14.953V15.104H17.3772V15.3197H17.0673V16.5926H16.8108V15.3197H16.597V15.104H16.8108C16.8108 14.7372 16.9925 14.4891 17.3131 14.4891C17.3451 14.4891 17.4841 14.5107 17.5589 14.5323L17.5589 14.5323ZM14.6841 14.4891V15.7728L15.2398 15.104H15.5497L15.0902 15.6649L15.6566 16.5926H15.368L14.9085 15.8483C14.8444 15.9238 14.7589 16.0101 14.6841 16.0856V16.5926H14.4169V14.4891H14.6841V14.4891ZM8.57104 14.4891V16.5926H8.31455C8.31455 16.5603 8.31455 16.5279 8.30387 16.4956C8.17563 16.5926 8.04739 16.6142 7.91914 16.6142C7.4489 16.6142 7.28859 16.2151 7.28859 15.8807C7.28859 15.5463 7.51302 15.0716 7.97257 15.0716C8.04739 15.0716 8.22906 15.104 8.31455 15.1687V14.4891H8.57104V14.4891ZM9.90694 9.39752C10.5375 9.53775 10.8153 9.89373 10.8153 10.3899C10.8153 10.4115 10.8047 10.6165 10.7726 10.7243C10.7405 10.8322 10.6817 10.9275 10.5802 11.0588C10.2645 11.4669 9.66113 11.7923 9.28709 11.7923H8.21837C8.38937 11.0048 8.53898 10.1958 8.70998 9.41911C8.70998 9.39753 8.72067 9.38675 8.74205 9.37596L9.55427 9.35439C9.57563 9.35439 9.78938 9.37596 9.90694 9.39753L9.90694 9.39752ZM16.9925 10.3036H15.0581L16.4688 8.12463L16.9925 10.3036ZM10.997 7.46661C10.997 7.48818 10.9543 7.69315 10.9436 7.80102C10.9222 8.02755 10.7191 8.36195 10.4199 8.54534C10.313 8.61007 9.87488 8.86896 9.81076 8.86896H8.85959C8.89166 8.69636 8.92372 8.51298 8.95578 8.34037C8.97716 8.2325 9.00922 8.11384 9.0199 8.00597C9.04128 7.89811 9.07334 7.77943 9.08403 7.67157C9.10541 7.5637 9.13747 7.44504 9.14815 7.33717C9.16953 7.22928 9.17843 7.16996 9.20159 7.00275C9.22474 6.81038 9.21049 6.80319 9.31915 6.80858L10.1207 6.78702C10.4627 6.78702 10.997 6.97039 10.997 7.46661V7.46661ZM17.3451 5.93481L18.9482 12.5906H17.5054L17.249 11.2853H14.4596L13.6047 12.5906H12.4077L16.8749 5.93481H17.3451H17.3451ZM10.965 5.93481C11.9268 6.04269 12.3756 6.49576 12.3756 7.25087C12.3756 8.05992 11.8199 8.664 10.8474 8.98762C10.8581 8.99841 10.8794 8.99841 10.8901 8.99841C11.6062 9.10628 12.1192 9.52697 12.1192 10.185C12.1192 11.2314 11.4779 12.2022 10.0886 12.515C10.0245 12.5258 9.597 12.6121 9.44738 12.6121H6.72217L8.10081 5.93481H10.9649L10.965 5.93481ZM2.27634 5.93481C2.16947 6.50655 2.05191 7.04591 1.94504 7.58526C1.85955 7.9844 1.77405 8.40511 1.69924 8.81502C1.59237 9.41911 1.42137 10.0016 1.42137 10.6057C1.42137 11.2637 1.63512 11.857 2.47939 11.857C3.29161 11.857 4.09315 11.3177 4.34964 10.2174C4.68094 8.79345 4.9588 7.35873 5.25804 5.93481H6.47637V5.96717C6.13438 7.53133 5.81376 9.09548 5.46109 10.6488C5.27408 11.1397 5.19125 11.2179 5.04429 11.4147C4.40307 12.3101 3.54811 12.6013 2.8107 12.6876C2.72521 12.6984 2.57558 12.72 2.54352 12.72H1.89162C1.76337 12.7092 1.62444 12.6876 1.50688 12.6661C1.38932 12.6445 1.26107 12.6121 1.14352 12.5798C0.320614 12.3748 0 11.5766 0 10.9833V10.7244C0.0106839 10.6488 0.0106839 10.5625 0.0213758 10.4763C0.331297 8.96605 0.641227 7.44504 0.951151 5.93482H2.27635L2.27634 5.93481ZM24.4306 12.5474C24.2596 12.569 23.9283 12.6121 23.8963 12.6121H21.2352L23.0306 4.10097C23.9711 5.95639 24.9115 7.83338 25.8413 9.71034C26.0016 10.1203 26.1512 10.5625 26.1512 10.9832C26.1512 11.9217 25.4993 12.3748 24.4306 12.5474L24.4306 12.5474ZM28.2566 10.8862C27.7115 9.81822 27.1665 8.73951 26.6321 7.67157C26.3329 7.07827 26.0337 6.4634 25.7344 5.88088C25.6382 5.67592 25.5314 5.49254 25.4459 5.29837C25.3497 5.08263 25.136 4.4246 25.136 4.11178V3.88524C25.1466 3.77736 25.1573 3.64791 25.1894 3.55083C25.51 2.52604 26.6963 2.42895 27.4016 2.37501L30.0627 2.375L28.2566 10.8862Z" fill="white"/>
</g>
<defs>
<clipPath id="clip0_3_96">
<rect width="30.1765" height="14.25" fill="white" transform="translate(0 2.375)"/>
</clipPath>
</defs>
</svg>
