<svg width="16" height="16" viewBox="0 0 16 16" fill="none" xmlns="http://www.w3.org/2000/svg">
<path fill-rule="evenodd" clip-rule="evenodd" d="M2.88204 4.04771C2.45035 4.16322 2.11359 4.53184 2.03119 4.97905C1.99089 5.19785 1.98902 11.1175 2.02921 11.3293C2.12309 11.8244 2.52595 12.2153 3.02076 12.2916C3.13525 12.3092 4.95407 12.3162 8.12633 12.3113L13.054 12.3036L13.2087 12.241C13.5453 12.1049 13.7883 11.8609 13.9284 11.5184L13.99 11.3676L13.9981 8.27059C14.0037 6.13816 13.9969 5.1195 13.9764 5C13.9337 4.7516 13.823 4.53652 13.6458 4.35802C13.4735 4.18453 13.3365 4.10525 13.1042 4.04474C12.8679 3.98321 3.11257 3.98604 2.88204 4.04771ZM13.0103 4.48564C13.029 4.50436 12.2238 5.23215 10.5431 6.7155C9.17079 7.92662 8.03241 8.92138 8.0133 8.92606C7.98071 8.9341 3.01508 4.57184 2.99003 4.51314C2.98362 4.49814 3.01555 4.47785 3.06098 4.46802C3.20338 4.43725 12.9792 4.45456 13.0103 4.48564ZM4.28021 6.27286C5.10223 6.99842 5.77119 7.6064 5.76679 7.62391C5.76241 7.64142 5.02848 8.48752 4.13582 9.50415C3.06343 10.7255 2.50555 11.3411 2.49137 11.3188C2.47959 11.3002 2.47004 9.87279 2.47012 8.14671C2.47031 5.07779 2.47152 5.00572 2.52482 4.88826L2.57935 4.76809L2.68251 4.86086C2.73927 4.91188 3.45822 5.54728 4.28021 6.27286ZM13.5084 4.96583C13.5438 5.09343 13.5459 11.2893 13.5105 11.3112C13.4836 11.3278 10.2461 7.65595 10.2461 7.60871C10.2461 7.59332 10.9584 6.95066 11.829 6.18053C13.5496 4.6585 13.4442 4.73478 13.5084 4.96583ZM7.10236 8.76427C7.52334 9.13625 7.89809 9.45225 7.93512 9.46654C7.97729 9.48281 8.02808 9.48281 8.07106 9.46654C8.10877 9.45225 8.52562 9.09991 8.99733 8.68353C9.46904 8.26715 9.86518 7.92648 9.8776 7.92648C9.89004 7.92648 10.6496 8.78043 11.5655 9.82415C13.378 11.8894 13.268 11.741 13.0431 11.8176C12.9105 11.8626 3.09731 11.8633 2.96184 11.8182C2.75092 11.748 2.66403 11.864 4.46364 9.81371L6.1343 7.91038L6.23563 7.99918C6.29135 8.04802 6.68139 8.3923 7.10236 8.76427Z" fill="#5C6881" stroke="#5C6881" stroke-width="0.3"/>
</svg>
