<svg width="14" height="14" viewBox="0 0 14 14" fill="none" xmlns="http://www.w3.org/2000/svg">
<path fill-rule="evenodd" clip-rule="evenodd" d="M2.93125 1.03958C2.86677 1.06191 2.54493 1.24338 2.21606 1.44281C1.54265 1.85122 1.39654 1.97447 1.24596 2.26101C1.0763 2.58388 0.976739 3.17514 1.00467 3.69407C1.10266 5.51614 2.39863 7.65295 4.79326 9.94081C6.61962 11.6858 8.31184 12.6968 9.82258 12.9455C10.5212 13.0605 11.3047 12.9823 11.739 12.754C12.0254 12.6035 12.1485 12.4575 12.5567 11.7839C12.7561 11.4551 12.9376 11.1332 12.9601 11.0687C13.0106 10.9241 13.013 10.796 12.9682 10.6449C12.8968 10.4044 12.8742 10.3863 11.527 9.48733C10.8351 9.0256 10.2227 8.6242 10.1661 8.59531C10.0369 8.52942 9.82525 8.5086 9.68472 8.54794C9.47467 8.60675 9.39527 8.68207 8.97762 9.21868C8.75783 9.50109 8.55892 9.74799 8.53559 9.76733C8.50885 9.78949 8.44458 9.80237 8.36192 9.80213C8.24297 9.80178 8.20439 9.78668 7.94932 9.64071C7.29582 9.26675 6.82961 8.89656 6.07591 8.15316C5.19892 7.28815 4.77018 6.76405 4.38089 6.08114C4.18678 5.74062 4.15472 5.62769 4.21766 5.50599C4.24024 5.46233 4.45782 5.27621 4.77344 5.03059C5.31654 4.60792 5.39257 4.52779 5.45205 4.31528C5.4914 4.17475 5.47058 3.9631 5.40469 3.83394C5.3758 3.77734 4.9744 3.1649 4.51267 2.47297C3.61366 1.1258 3.59556 1.10325 3.35511 1.03184C3.20431 0.987057 3.07614 0.989402 2.93125 1.03958ZM3.28552 1.43711C3.35987 1.4725 3.48368 1.6459 4.18549 2.69749C4.63306 3.36813 5.01785 3.95285 5.04062 3.99686C5.09087 4.09411 5.07849 4.22924 5.0115 4.31441C4.98589 4.34696 4.76589 4.52798 4.52259 4.71667C4.00134 5.12096 3.94385 5.17273 3.86135 5.31204C3.80545 5.40645 3.79886 5.44106 3.79886 5.64049V5.86344L3.96162 6.15637C4.38785 6.92357 4.81558 7.4647 5.67545 8.32455C6.53378 9.18287 7.07685 9.61238 7.83962 10.0362C8.10745 10.185 8.14103 10.1975 8.29971 10.2077C8.50883 10.2211 8.66451 10.1754 8.7973 10.0618C8.84818 10.0182 9.06213 9.76058 9.27275 9.48923C9.6612 8.98876 9.73052 8.92317 9.87098 8.92317C9.90512 8.92317 9.96318 8.93874 9.99997 8.95776C10.0368 8.9768 10.6192 9.36246 11.2943 9.81479C12.6183 10.7018 12.625 10.7073 12.5961 10.885C12.5762 11.0081 11.9123 12.0934 11.7723 12.232C11.5429 12.4589 11.1931 12.5697 10.6225 12.5959C9.36085 12.654 7.79432 11.9617 6.1672 10.627C5.50997 10.0879 4.59469 9.2153 4.01117 8.57144C2.45191 6.85099 1.61157 5.35355 1.42794 3.9683C1.35882 3.44692 1.4256 2.80249 1.58156 2.4857C1.69378 2.25773 1.85558 2.12534 2.474 1.75541C2.77707 1.57412 3.04088 1.41995 3.06022 1.4128C3.12656 1.38824 3.19941 1.39612 3.28552 1.43711ZM7.75 2.60895C7.60877 2.65889 7.56079 2.84306 7.66383 2.93983C7.71051 2.98371 7.76062 2.99428 8.01298 3.01353C8.3661 3.0405 8.60394 3.08667 8.88727 3.1833C9.83726 3.50732 10.6057 4.24123 10.9643 5.16696C11.0945 5.50329 11.1953 5.98758 11.1969 6.28517C11.1978 6.44671 11.231 6.52749 11.3162 6.57533C11.3895 6.61648 11.4826 6.59695 11.5481 6.52667C11.587 6.48491 11.5956 6.44401 11.5956 6.30135C11.5956 5.94326 11.4891 5.41322 11.3394 5.02627C10.8486 3.75783 9.66184 2.81945 8.3245 2.64229C8.07936 2.60984 7.79432 2.59328 7.75 2.60895ZM7.66207 3.86281C7.58956 3.9412 7.59118 4.06749 7.66558 4.13739C7.71234 4.18131 7.7624 4.19379 7.96102 4.21105C8.26843 4.23775 8.50637 4.30299 8.7701 4.43292C9.18617 4.63789 9.53444 4.98076 9.74794 5.39561C9.90205 5.69508 10.001 6.06867 10.0011 6.35146C10.0011 6.44528 10.0128 6.47637 10.0696 6.53319C10.1597 6.62328 10.2421 6.62223 10.3346 6.52981C10.4064 6.45799 10.4065 6.45766 10.393 6.25429C10.3513 5.62126 10.0898 5.03246 9.65285 4.5874C9.19147 4.11746 8.61287 3.85113 7.98449 3.8194C7.72074 3.80608 7.71368 3.80702 7.66207 3.86281ZM7.66687 5.06477C7.55624 5.17538 7.61311 5.36133 7.76655 5.39078C7.8026 5.3977 7.88825 5.41029 7.95689 5.41876C8.13857 5.44118 8.37688 5.56923 8.52154 5.72219C8.67154 5.8808 8.74829 6.04332 8.78185 6.27345C8.81233 6.48242 8.83796 6.54086 8.9144 6.5757C8.99969 6.61456 9.05371 6.60759 9.1219 6.54892C9.20257 6.47954 9.21762 6.35575 9.1718 6.1384C9.05819 5.59941 8.67093 5.18469 8.15902 5.05375C7.90042 4.98763 7.74043 4.99119 7.66687 5.06477Z" fill="#5C6881" stroke="#5C6881" stroke-width="0.3"/>
</svg>
