<svg width="19" height="18" viewBox="0 0 19 18" fill="none" xmlns="http://www.w3.org/2000/svg">
<path d="M9.50001 11.9167H5.75001C4.58704 11.9167 4.00555 11.9167 3.53239 12.0602C2.46705 12.3834 1.63337 13.217 1.3102 14.2824C1.16667 14.7555 1.16667 15.337 1.16667 16.5M12.8333 14L15.3333 16.5M15.3333 16.5L17.8333 14M15.3333 16.5V11.5M11.5833 5.25C11.5833 7.32107 9.90441 9 7.83334 9C5.76227 9 4.08334 7.32107 4.08334 5.25C4.08334 3.17893 5.76227 1.5 7.83334 1.5C9.90441 1.5 11.5833 3.17893 11.5833 5.25Z" stroke="white" stroke-width="2" stroke-linecap="round" stroke-linejoin="round"/>
</svg>
