<svg width="16" height="16" viewBox="0 0 16 16" fill="none" xmlns="http://www.w3.org/2000/svg">
<path fill-rule="evenodd" clip-rule="evenodd" d="M7.4924 2.02542C5.98551 2.17158 4.44212 2.93545 3.47096 4.01578C2.69647 4.87732 2.24109 5.85177 2.05645 7.04265C1.98127 7.52747 1.98078 8.47045 2.05544 8.94923C2.23501 10.1007 2.66366 11.0463 3.38694 11.8867C4.56177 13.2517 6.42942 14.0591 8.25594 13.9918C9.82343 13.934 11.0908 13.4233 12.1018 12.4421C12.9624 11.6068 13.584 10.4622 13.8649 9.1953C14.2509 7.45487 13.7906 5.59301 12.6135 4.13333C12.2654 3.70166 11.7032 3.20575 11.2107 2.89591C10.1505 2.229 8.757 1.90276 7.4924 2.02542ZM7.81002 4.1361V5.87308L7.60465 5.85721C7.10385 5.81852 6.45082 5.6769 6.04101 5.51813C5.75703 5.40808 5.46302 5.27687 5.46302 5.26018C5.46302 5.231 5.64411 4.70995 5.72025 4.52001C5.8426 4.21484 6.10995 3.71593 6.27909 3.47715C6.58146 3.05028 7.00692 2.67712 7.35932 2.52972C7.50054 2.47066 7.71837 2.40397 7.78068 2.40069C7.80389 2.39947 7.81002 2.76133 7.81002 4.1361ZM8.52585 2.48718C9.32181 2.76932 10.0142 3.67944 10.4613 5.0312C10.5032 5.15768 10.5331 5.26545 10.5278 5.2707C10.5226 5.27595 10.4132 5.32662 10.2849 5.38329C9.69381 5.64419 9.0646 5.80078 8.37916 5.85754L8.18553 5.87357V4.1353V2.39701L8.27355 2.41299C8.32197 2.42175 8.43549 2.45515 8.52585 2.48718ZM6.37419 2.79322C5.88989 3.29705 5.4952 3.98119 5.21365 4.80486C5.16587 4.94465 5.12388 5.06274 5.12036 5.06731C5.10752 5.08383 4.6998 4.80528 4.49132 4.63758C4.37387 4.54312 4.19858 4.391 4.10176 4.29956L3.92574 4.13328L4.13697 3.93188C4.72041 3.37556 5.45182 2.93871 6.23551 2.67855C6.42381 2.61603 6.58179 2.56452 6.5866 2.56405C6.59141 2.56356 6.49582 2.6667 6.37419 2.79322ZM9.82843 2.69721C10.5781 2.95141 11.4527 3.4962 11.9642 4.02759L12.0698 4.13731L11.8938 4.30033C11.797 4.38999 11.6333 4.53224 11.53 4.61644C11.3369 4.7739 10.8881 5.08369 10.876 5.0679C10.8722 5.063 10.8237 4.92719 10.768 4.76608C10.4905 3.96226 10.0951 3.28212 9.62044 2.79198L9.39947 2.56377L9.52593 2.60066C9.59549 2.62093 9.73162 2.66438 9.82843 2.69721ZM3.88692 4.62828C4.18576 4.9083 4.5345 5.17331 4.89207 5.39217L5.01348 5.46648L4.98071 5.60254C4.83611 6.20318 4.71198 7.15582 4.71198 7.66499V7.81263H3.55022H2.38846V7.69665C2.38846 7.5551 2.44687 7.10035 2.49473 6.86923C2.63578 6.18809 2.93181 5.48017 3.31505 4.90739C3.4807 4.6598 3.64971 4.43799 3.67266 4.43799C3.67881 4.43799 3.77522 4.52362 3.88692 4.62828ZM12.4217 4.54473C12.8135 5.0222 13.2072 5.7919 13.3961 6.44988C13.5084 6.84104 13.6063 7.42811 13.6069 7.71303L13.6071 7.81263H12.449H11.2909L11.2755 7.46696C11.2493 6.87947 11.1672 6.264 11.0407 5.70718L10.9856 5.46482L11.1259 5.37909C11.4665 5.17085 11.9854 4.76624 12.2095 4.53407C12.2606 4.48122 12.3094 4.43799 12.3182 4.43799C12.3269 4.43799 12.3735 4.48603 12.4217 4.54473ZM5.57025 5.74011C6.13511 5.99714 6.91471 6.1917 7.56358 6.23761L7.79828 6.2542L7.80445 7.03342L7.81065 7.81263H6.44782H5.08499L5.09956 7.54899C5.11766 7.22204 5.17455 6.62942 5.20588 6.44168C5.26543 6.08498 5.35501 5.65661 5.37008 5.65661C5.37926 5.65661 5.46933 5.69417 5.57025 5.74011ZM10.7048 5.97884C10.8103 6.52213 10.8601 6.93265 10.8966 7.5607L10.9112 7.81263H9.54804H8.1849L8.1911 7.03342L8.19727 6.2542L8.43197 6.23761C8.76534 6.21401 9.10901 6.15697 9.48518 6.06274C9.80724 5.98205 10.3156 5.80397 10.4973 5.70816C10.549 5.68096 10.6027 5.65822 10.6167 5.65764C10.6309 5.65705 10.6697 5.79869 10.7048 5.97884ZM4.71198 8.33523C4.71198 8.84384 4.83616 9.79744 4.98038 10.3962L5.01282 10.5309L4.75108 10.7009C4.44205 10.9016 4.09932 11.1698 3.85192 11.4045L3.67395 11.5733L3.59319 11.4799C3.44869 11.3127 3.1447 10.8387 2.99877 10.5528C2.76918 10.1032 2.59332 9.60712 2.49473 9.13099C2.44687 8.89988 2.38846 8.44512 2.38846 8.30357V8.18759H3.55022H4.71198V8.33523ZM7.80445 8.96681L7.79828 9.74602L7.55185 9.76341C6.92496 9.80761 6.20556 9.98368 5.63904 10.2316C5.52287 10.2824 5.41122 10.3291 5.39094 10.3354C5.36055 10.3449 5.34299 10.2899 5.29113 10.023C5.18521 9.47804 5.13545 9.06816 5.09898 8.43952L5.08436 8.18759H6.44751H7.81065L7.80445 8.96681ZM10.8966 8.43952C10.8747 8.81558 10.8387 9.20181 10.801 9.4648C10.7522 9.80475 10.6448 10.3436 10.6258 10.3436C10.6169 10.3436 10.5315 10.3079 10.4361 10.2642C9.8347 9.98885 9.12811 9.81204 8.43197 9.76266L8.19727 9.74602L8.1911 8.96681L8.1849 8.18759H9.54804H10.9112L10.8966 8.43952ZM13.6069 8.28719C13.606 8.73154 13.4416 9.49794 13.2318 10.0356C13.046 10.5116 12.6631 11.1771 12.4006 11.4802L12.3195 11.574L12.1712 11.4315C11.8651 11.1376 11.3999 10.7787 11.0911 10.5982L10.9854 10.5364L11.0406 10.2936C11.1672 9.7362 11.2493 9.12096 11.2755 8.53326L11.2909 8.18759H12.449H13.6071L13.6069 8.28719ZM7.81002 11.8687V13.6048L7.73374 13.5896C6.82364 13.4079 6.05611 12.5046 5.55406 11.0243C5.50397 10.8767 5.46302 10.7487 5.46302 10.74C5.46302 10.7168 5.98865 10.4951 6.23056 10.4162C6.69339 10.2652 7.28509 10.1534 7.71027 10.1366L7.81002 10.1327V11.8687ZM8.83096 10.1941C9.13764 10.2373 9.62154 10.358 9.89783 10.4601C10.1626 10.558 10.5325 10.7215 10.5325 10.7406C10.5325 10.749 10.4916 10.8767 10.4415 11.0243C10.0482 12.1839 9.49943 12.9842 8.83096 13.373C8.68122 13.4601 8.41901 13.5608 8.27355 13.5872L8.18553 13.6032V11.8649V10.1267L8.37916 10.1422C8.48567 10.1507 8.68897 10.1741 8.83096 10.1941ZM5.17953 11.0994C5.26575 11.3691 5.38749 11.6688 5.53418 11.9724C5.78768 12.4971 6.03717 12.8623 6.38663 13.2203L6.59829 13.4371L6.4707 13.3996C5.56028 13.1318 4.77749 12.682 4.10897 12.0423L3.92574 11.8669L4.1135 11.6911C4.21676 11.5944 4.3835 11.4494 4.48402 11.3688C4.65931 11.2284 5.0852 10.9309 5.11221 10.9299C5.11935 10.9297 5.14965 11.0059 5.17953 11.0994ZM11.1348 11.0893C11.4082 11.2745 11.6454 11.4655 11.8938 11.7005L12.0698 11.867L11.8586 12.0684C11.231 12.6668 10.467 13.1081 9.5973 13.3746L9.4014 13.4346L9.61089 13.2184C10.055 12.76 10.4036 12.1876 10.6908 11.4451C10.7432 11.3097 10.8048 11.1384 10.8279 11.0642C10.8509 10.9901 10.8762 10.9295 10.8843 10.9295C10.8923 10.9295 11.0051 11.0014 11.1348 11.0893Z" fill="#5C6881" stroke="#5C6881" stroke-width="0.3"/>
</svg>
